<?xml version="1.0" encoding="UTF-8" standalone="no"?>
<!-- Created with Inkscape (http://www.inkscape.org/) -->

<svg
   width="881.33"
   height="837.33"
   version="1.1"
   viewBox="0 0 881.33 837.33"
   id="svg3"
   sodipodi:docname="Dawit ink.svg"
   inkscape:version="1.3 (0e150ed6c4, 2023-07-21)"
   xmlns:inkscape="http://www.inkscape.org/namespaces/inkscape"
   xmlns:sodipodi="http://sodipodi.sourceforge.net/DTD/sodipodi-0.dtd"
   xmlns="http://www.w3.org/2000/svg"
   xmlns:svg="http://www.w3.org/2000/svg">
  <defs
     id="defs3" />
  <sodipodi:namedview
     id="namedview3"
     pagecolor="#ffffff"
     bordercolor="#000000"
     borderopacity="0.25"
     inkscape:showpageshadow="2"
     inkscape:pageopacity="0.0"
     inkscape:pagecheckerboard="0"
     inkscape:deskcolor="#d1d1d1"
     inkscape:zoom="0.6496841"
     inkscape:cx="440.98355"
     inkscape:cy="418.66501"
     inkscape:window-width="1440"
     inkscape:window-height="740"
     inkscape:window-x="-6"
     inkscape:window-y="-6"
     inkscape:window-maximized="1"
     inkscape:current-layer="svg3" />
  <g
     id="g3"
     transform="translate(-4.1432134e-8,-9.2352579)">
    <path
       d="m 7.6467,827.66 c -1.4162,-0.82485 -2.3333,-2.9596 -2.3333,-5.4309 v -4.0719 l 4.6911,4.1189 c 2.5801,2.2654 6.0301,4.4428 7.6667,4.8388 1.6366,0.39599 91.176,0.48342 198.98,0.19429 177.24,-0.47539 268.17,-1.9108 273.92,-4.324 1.1453,-0.48085 9.5824,-1.6767 18.749,-2.6575 21.663,-2.3178 41.863,-5.1809 56,-7.9376 32.093,-6.258 41.705,-8.3776 57.333,-12.644 5.5,-1.5014 12.376,-3.3424 15.281,-4.0911 2.9045,-0.74867 5.9045,-1.8247 6.6667,-2.3913 0.7622,-0.5666 4.0858,-1.7665 7.3858,-2.6666 8.4325,-2.3001 36.131,-13.037 45.333,-17.573 1.1,-0.54221 5,-2.4515 8.6667,-4.2428 13.994,-6.8365 21.615,-11.095 29.751,-16.626 4.6297,-3.1469 8.7352,-5.7217 9.1235,-5.7217 0.92882,0 11.849,-8.245 22.516,-17 4.6909,-3.85 9.0383,-7 9.661,-7 1.3502,0 19.989,-19.551 32.617,-34.214 27.75,-32.221 53.586,-87.191 59.12,-125.79 6.6425,-46.327 8.3096,-67.701 8.3196,-106.67 0.0132,-51.165 -3.5443,-81.67 -14.54,-124.68 -2.8138,-11.006 -6.4099,-23.306 -7.9914,-27.333 -1.5815,-4.0273 -4.0443,-10.322 -5.4729,-13.989 -4.1552,-10.665 -5.3201,-13.157 -20.253,-43.333 -18.249,-36.878 -22.541,-43.858 -44.377,-72.171 -5.8218,-7.5485 -38.543,-39.889 -48.392,-47.829 -12.099,-9.7543 -34.718,-25.394 -47.416,-32.786 -3.6661,-2.1342 -8.4661,-4.9345 -10.667,-6.2227 -6.6222,-3.8768 -42.325,-21.539 -47.334,-23.417 -2.5667,-0.96199 -9.1667,-3.2342 -14.667,-5.0494 -5.5,-1.8152 -11.019,-3.8615 -12.264,-4.5473 -1.2453,-0.68581 -9.542,-2.7547 -18.437,-4.5976 -8.895,-1.8429 -16.684,-3.6664 -17.308,-4.0522 -0.62435,-0.38587 -7.9277,-1.7424 -16.23,-3.0146 -19.535,-2.9935 -88.273,-3.3263 -103.57,-0.50143 -12.465,2.3014 -14.848,4.5216 -14.876,13.855 -0.0112,3.85 -0.46123,7.6704 -1,8.4898 -0.6382,0.97058 -10.273,1.7558 -27.646,2.2531 -42.683,1.2219 -88.964,4.9558 -111.69,9.0111 -4.2304,0.75484 -8.2804,1.0086 -9,0.56386 -0.7196,-0.44474 -1.3083,-6.9703 -1.3083,-14.501 0,-12.941 -0.2167,-14.02 -3.9446,-19.648 -7.3787,-11.14 -0.42052,-10.502 -114.56,-10.502 h -101.08 l -5.8764,3.1 c -3.6471,1.924 -7.0134,5.0853 -8.8737,8.3333 l -2.9973,5.2333 0.33067,69.333 0.33067,69.333 6.3384,5.8412 c 3.4861,3.2126 9.1861,7.3319 12.667,9.1538 11.477,6.008 16.004,11.891 20.78,27.005 5.596,17.711 5.5487,16.099 5.5487,188.67 v 165.33 l -14.131,0.66666 c -8.8764,0.41878 -14.922,1.324 -16.259,2.4346 -2.5485,2.1174 -3.2799,15.099 -4.3605,77.404 l -0.72567,41.838 2.9702,3.1616 c 2.7343,2.9106 4.0105,3.1616 16.071,3.1616 15.06,0 14.663,-0.46584 10.792,12.667 -2.0161,6.8405 -3.8073,9.4494 -12.358,18 -8.6079,8.6079 -11.114,10.32 -18,12.3 -4.4,1.2651 -12.2,2.6021 -17.333,2.9711 -19.451,1.398 -25.742,2.6884 -29.272,6.0043 l -3.3947,3.1892 v -4.1855 c 0,-5.1775 2.0056,-6.3068 13.333,-7.5077 39.078,-4.1428 37.871,-3.7646 50.217,-15.736 6.9282,-6.7179 10.221,-11.056 11.711,-15.428 1.1399,-3.3454 2.0725,-6.5756 2.0725,-7.1783 0,-0.6027 -5.4273,-1.0958 -12.061,-1.0958 -11.078,0 -12.331,-0.27088 -15.384,-3.3239 l -3.3239,-3.3239 0.69011,-44.343 c 0.37956,-24.389 1.0351,-52.594 1.4567,-62.679 l 0.76655,-18.336 3.8616,-1.9969 c 2.6423,-1.3664 7.899,-1.9969 16.649,-1.9969 h 12.787 l -0.42517,-164.33 -0.42517,-164.33 -3.1024,-11.333 c -1.7063,-6.2333 -3.6394,-11.903 -4.2956,-12.6 -0.65627,-0.69666 -1.1932,-2.2154 -1.1932,-3.3751 0,-2.9085 -14.271,-16.568 -20.122,-19.259 -2.6336,-1.2114 -6.7284,-4.2041 -9.0996,-6.6506 -4.0683,-4.1974 -4.6045,-4.3737 -9.5137,-3.1276 -8.3599,2.122 -13.762,0.37145 -19.711,-6.3875 l -5.2571,-5.9724 -0.97038,-24.314 c -1.5179,-38.032 -1.3622,-95.072 0.29661,-108.67 1.2334,-10.112 2.4122,-13.988 6.4883,-21.333 2.7395,-4.9371 6.4707,-10.774 8.2915,-12.971 4.5983,-5.5485 14.346,-10.785 22.247,-11.95 3.657,-0.53931 8.2772,-1.8225 10.267,-2.8515 5.4339,-2.81 54.001,-2.6428 63.637,0.21902 5.7227,1.6995 11.062,1.9321 28.575,1.2453 11.846,-0.46456 36.955,-0.95504 55.798,-1.09 l 34.26,-0.24532 4.4065,4.219 c 3.768,3.6077 5.7589,4.3578 13.74,5.1763 12.081,1.2391 14.602,2.2673 22.09,9.0073 6.1729,5.5567 21.429,15.597 23.7,15.597 0.65141,0 2.7691,1.2466 4.706,2.7701 3.4634,2.7243 3.9792,2.7438 31.18,1.1806 15.431,-0.88681 65.089,-1.651 112.32,-1.7284 89.369,-0.1466 94.27,0.11752 120,6.4673 4.7667,1.1763 11.967,2.73 16,3.4526 6.1732,1.106 26.672,7.7876 45.333,14.777 5.0905,1.9065 35.313,17.044 46,23.039 14.802,8.3045 43.845,27.683 56.015,37.375 9.5283,7.5884 48,46.778 53.709,54.712 3.1482,4.3749 7.9133,10.954 10.589,14.621 15.118,20.717 46.239,82.514 53.717,106.67 0.90815,2.9333 2.0925,5.9333 2.6318,6.6667 0.53935,0.73333 1.2941,2.8333 1.6771,4.6667 0.38306,1.8333 2.8395,11.515 5.4588,21.515 7.1059,27.13 10.336,47.462 12.999,81.818 1.6842,21.729 0.74842,98.291 -1.3118,107.33 -0.75187,3.3 -2.0184,12 -2.8145,19.333 -2.5114,23.134 -3.9082,33.151 -5.4845,39.333 -1.723,6.7576 -8.7733,28.593 -10.548,32.667 -0.63883,1.4667 -2.4648,5.9667 -4.0577,10 -4.0957,10.371 -10.415,23.178 -16.247,32.926 -2.75,4.5972 -5,8.7331 -5,9.1909 0,0.4578 -1.8,3.1049 -4,5.8826 -2.2,2.7777 -4,5.4977 -4,6.0444 0,2.3279 -16.495,21.223 -32.614,37.36 -28.16,28.191 -58.792,49.099 -95.386,65.108 -6.2333,2.7269 -12.39,5.5367 -13.683,6.244 -1.2921,0.70734 -5.1921,2.2362 -8.6667,3.3974 -3.4746,1.1612 -8.1175,2.8909 -10.317,3.8438 -2.1995,0.9529 -6.4,2.362 -9.3333,3.1312 -2.9333,0.76927 -8.6333,2.5866 -12.667,4.0384 -11.266,4.0555 -36.265,10.083 -69.333,16.717 -26.125,5.241 -23.519,4.8494 -63.333,9.5187 -9.5333,1.118 -23.033,2.5807 -30,3.2504 -18.099,1.7397 -470.67,1.6507 -473.67,-0.0931 z M 39.4797,191 l 3.8333,-0.76609 -0.43006,-69.509 c -0.23653,-38.23 -0.05694,-71.498 0.3991,-73.929 1.0293,-5.4868 7.9029,-13.5 13.634,-15.895 3.4959,-1.4607 23.97,-1.8014 108.25,-1.8014 h 103.94 l 5.7703,4.3694 c 8.6571,6.5553 10.432,11.162 10.435,27.074 l 0.002,13.443 7.6667,-1.0885 c 31.786,-4.5129 94.374,-9.1266 123.86,-9.1303 13.894,-0.0017 13.809,0.06806 13.809,-11.333 0,-6.2062 0.46287,-7.4503 3.6307,-9.7579 l 3.6307,-2.6448 -7.2974,-0.88522 c -8.7153,-1.0572 -45.157,-0.21974 -87.081,2.0013 -30.2,1.5999 -30.482,1.5899 -34.279,-1.2179 -2.106,-1.5571 -4.3115,-2.831 -4.901,-2.831 -0.5895,0 -4.1901,-2.1 -8.0014,-4.6667 -3.8113,-2.5667 -7.4335,-4.6667 -8.0494,-4.6667 -0.6159,0 -4.505,-3.0172 -8.6424,-6.7048 -7.2758,-6.4848 -7.9014,-6.7537 -19.064,-8.1946 -9.7282,-1.2558 -12.201,-2.0952 -15.744,-5.3442 -2.3114,-2.1199 -5.4267,-4.1658 -6.9228,-4.5464 -2.538,-0.64563 -27.859,-0.19089 -85.135,1.5289 -19.421,0.58317 -24.98,0.33323 -29.904,-1.3446 -8.6369,-2.9429 -53.277,-2.9721 -58.95,-0.0386 -2.1509,1.1123 -6.7711,2.402 -10.267,2.866 -7.571,1.0048 -17.353,6.2477 -21.986,11.784 -7.4034,8.8461 -13.072,22.221 -14.708,34.705 -2.2545,17.198 -1.4126,113.87 1.0943,125.66 0.9053,4.256 10.927,13.632 14.571,13.632 1.6532,0 4.7309,-0.34474 6.8392,-0.76609 z m 324.13,511.95 c -0.56862,-0.56863 -10.168,-1.7946 -21.331,-2.7245 -25.231,-2.1015 -40.05,-3.895 -46.964,-5.6839 -2.9333,-0.75894 -6.7929,-1.544 -8.5769,-1.7446 -3.933,-0.44225 -5.8487,-5.9392 -4.6575,-13.365 0.44116,-2.75 0.89938,-5.0939 1.0182,-5.2087 0.11888,-0.11478 12.06,-0.56478 26.535,-1 l 26.319,-0.79131 12.695,-12.701 0.72474,-227.97 h -8.029 c -10.112,0 -10.592,-2.3959 -0.58783,-2.9335 l 7.4412,-0.39988 -0.001,-14.667 -10e-4,-14.667 -26.214,-1.3333 -0.66666,-32.667 -0.66667,-32.667 h -30.787 c -24.131,0 -31.266,-0.39563 -33,-1.8299 -2.0066,-1.6595 -2.2126,-7.9462 -2.2126,-67.503 0,-50.947 0.37374,-65.969 1.6667,-66.992 1.6758,-1.3258 110.07,-3.4938 157.67,-3.1535 99.46,0.71104 179.19,16.833 231.33,46.779 5.5,3.1586 11.207,6.4082 12.682,7.2216 6.2071,3.4217 23.704,17.5 35.208,28.33 39.807,37.472 63.268,90.438 70.791,159.82 0.87483,8.0677 1.3687,16.168 1.0975,18 -0.2712,1.832 -1.2695,-3.8686 -2.2185,-12.669 -1.9252,-17.852 -2.3482,-20.223 -8.3283,-46.667 -13.891,-61.427 -46.483,-109.96 -95.232,-141.8 -55.655,-36.358 -128.04,-53.381 -240.67,-56.601 -26.545,-0.75886 -158.01,2.0152 -159.67,3.3691 -2.4282,1.9859 -2.4282,128.39 0,129.96 0.91667,0.59328 15.698,1.3787 32.847,1.7454 l 31.18,0.66666 -0.25973,32.16 c -0.22387,27.72 0.0204,32.268 1.769,32.939 1.1158,0.42817 7.1515,0.41696 13.413,-0.0249 l 11.384,-0.80339 v -36.972 c 0,-39.598 -0.48181,-43.011 -6.8836,-48.766 -5.5265,-4.9683 -6.7454,-5.1886 -32.45,-5.865 l -25.333,-0.66667 -0.35321,-39.692 -0.35322,-39.692 3.4947,-1.3287 c 2.2322,-0.84866 31.743,-1.1513 81.687,-0.83775 76.764,0.48196 114.3,1.8485 130.19,4.7394 4.4,0.80052 12.8,2.0483 18.667,2.7728 21.181,2.6158 35.628,6.0672 48.667,11.626 9.9218,4.2304 29.466,14.403 35.573,18.514 2.0681,1.3925 4.7717,3.1391 6.008,3.8813 17.769,10.668 40.208,32.809 53.298,52.589 9.9546,15.043 20.863,36.591 25.279,49.935 1.4848,4.4871 3.1768,9.3584 3.7601,10.825 3.711,9.3314 10.129,40.948 12.045,59.333 0.64951,6.2333 1.2236,25.519 1.2757,42.857 0.0866,28.824 -0.10509,31.605 -2.2386,32.475 -1.2833,0.52318 -9.2333,1.2652 -17.667,1.649 -8.5474,0.38899 -16.853,1.4682 -18.767,2.4384 -5.1767,2.6243 -13.233,12.176 -13.233,15.689 0,5.909 -8.9768,30.96 -16.326,45.558 -17.332,34.43 -39.937,59.353 -74.178,81.784 -8.3806,5.4902 -27.916,15.603 -39.497,20.446 -11.044,4.6183 -42.468,14.437 -46.205,14.437 -2.7633,0 -12.189,2.1309 -21.403,4.8387 -10.819,3.1795 -88.316,7.4592 -90.763,5.0123 z m 59.933,-5.6724 c 11.859,-0.80979 24.159,-2.3183 27.333,-3.3522 3.174,-1.0339 9.9715,-2.6056 15.105,-3.4927 14.077,-2.4326 40.829,-10.591 54.667,-16.671 32.866,-14.442 49.841,-25.969 73.902,-50.185 15.391,-15.49 22.765,-23.997 22.765,-26.259 0,-0.802 1.6723,-3.429 3.7162,-5.8379 2.0439,-2.4089 7.3582,-11.88 11.809,-21.046 7.5678,-15.585 10.771,-24.291 15.787,-42.904 1.5903,-5.902 3.2349,-8.5937 7.4614,-12.211 5.1997,-4.4508 5.9495,-4.6686 18.324,-5.3246 14.38,-0.76226 21.416,-1.9075 23.902,-3.8906 1.9072,-1.5209 2.1835,-46.754 0.40527,-66.336 -1.37,-15.086 -5.3339,-35.59 -10.284,-53.194 -4.2522,-15.123 -6.1609,-20.507 -11.157,-31.473 -7.1483,-15.688 -7.8728,-17.069 -13.294,-25.333 -2.886,-4.4 -5.672,-8.9 -6.191,-10 -1.8088,-3.8339 -12.806,-17.542 -14.636,-18.244 -1.014,-0.38912 -1.8437,-1.5175 -1.8437,-2.5076 0,-2.5114 -23.267,-22.968 -34.968,-30.743 -24.007,-15.954 -56.842,-31.144 -67.412,-31.186 -1.991,-0.008 -6.3201,-0.83311 -9.6201,-1.8337 -3.3,-1.0006 -11.1,-2.2352 -17.333,-2.7435 -6.2333,-0.50833 -13.135,-1.4808 -15.337,-2.1609 -8.404,-2.5958 -54.764,-4.3407 -127.71,-4.8068 -51.293,-0.32774 -76.559,-0.0316 -78.333,0.91808 -2.5042,1.3402 -2.6194,2.9827 -2.6194,37.355 v 35.953 h 24.928 c 24.885,0 24.937,0.006 30.101,3.5848 2.8451,1.9716 6.2691,5.7336 7.6089,8.3599 2.3194,4.5463 2.443,12.957 2.5817,175.55 0.16244,190.5 0.8898,176.21 -9.4204,185.04 l -5.6131,4.8046 h -23.988 c -20.45,0 -24.348,0.32546 -26.427,2.2066 -1.3411,1.2137 -2.4383,3.2402 -2.4383,4.5034 0,4.4924 0.47859,4.626 38,10.605 4.4,0.70117 14.549,1.6705 22.554,2.1541 8.0046,0.48356 16.105,1.365 18,1.9588 4.1605,1.3034 30.306,0.75588 59.675,-1.2496 z m 198.35,-55.951 c 2.1539,-2.325 4.4393,-4.2273 5.0787,-4.2273 1.8898,0 -0.10595,2.334 -4.7018,5.4986 l -4.293,2.9561 z m 191.42,-5.5607 c 0.78493,-1.4667 1.7272,-2.6667 2.0938,-2.6667 0.3666,0 0.0244,1.2 -0.76049,2.6667 -0.78494,1.4667 -1.7272,2.6667 -2.0938,2.6667 -0.36667,0 -0.0245,-1.2 0.76049,-2.6667 z m -176.73,-10.931 c 4.0694,-5.6453 9.5108,-13.868 12.092,-18.272 2.5812,-4.4042 5.3734,-8.4281 6.2047,-8.9419 1.893,-1.1699 1.5087,-0.51034 -9.0182,15.478 -4.587,6.9667 -10.216,14.767 -12.509,17.333 -2.2928,2.5667 -0.83926,0.0478 3.2301,-5.5975 z m 180.15,3.8733 c 0.50071,-1.315 1.2463,-2.055 1.6568,-1.6444 0.41052,0.41052 8.5e-4,1.4864 -0.91037,2.3908 -1.3168,1.307 -1.47,1.1539 -0.7464,-0.74639 z m 4,-8 c 0.50071,-1.315 1.2463,-2.055 1.6568,-1.6444 0.41052,0.41052 8.5e-4,1.4864 -0.91037,2.3908 -1.3168,1.307 -1.47,1.1539 -0.7464,-0.74639 z m 8.6218,-18.942 c 0,-0.73333 0.58162,-2.2333 1.2925,-3.3333 0.71087,-1.1 1.2925,-1.4 1.2925,-0.66667 0,0.73334 -0.58163,2.2333 -1.2925,3.3333 -0.71088,1.1 -1.2925,1.4 -1.2925,0.66666 z m -507.94,-6.7778 c 0.064,-1.5533 0.37992,-1.8692 0.80556,-0.80556 0.38516,0.9625 0.33779,2.1125 -0.10527,2.5556 -0.44305,0.44305 -0.75818,-0.34445 -0.70029,-1.75 z m 335.89,-3.1435 c 0,-0.69005 0.59313,-1.6212 1.3181,-2.0692 0.75581,-0.46712 0.97934,0.0681 0.52401,1.2546 -0.88638,2.3099 -1.8421,2.7325 -1.8421,0.8146 z m 176.11,-1.412 c -0.0403,-1.1 0.50832,-2.9 1.2192,-4 1.5751,-2.4373 1.5751,-0.33211 0,3.3333 -0.75558,1.7583 -1.1709,1.9854 -1.2192,0.66667 z m -173.22,-4.6667 c 0.30307,-0.73333 1.9208,-4.3333 3.595,-8 1.6742,-3.6667 5.1935,-12.967 7.8207,-20.667 4.9393,-14.476 6.377,-17.333 8.7229,-17.333 0.7572,0 0.42984,1.05 -0.72748,2.3333 -1.1573,1.2833 -4.1805,8.3333 -6.7183,15.667 -6.6815,19.308 -9.0639,25.082 -11.278,27.333 -1.0815,1.1 -1.7184,1.4 -1.4153,0.66666 z m 177.21,-8.1111 c 0.064,-1.5532 0.37992,-1.8692 0.80555,-0.80555 0.38516,0.9625 0.3378,2.1125 -0.10526,2.5556 -0.44306,0.44306 -0.75819,-0.34444 -0.70029,-1.75 z m -515.8,-8.5556 c 0,-2.5667 0.2744,-3.6167 0.60977,-2.3333 0.33537,1.2833 0.33537,3.3833 0,4.6667 -0.33537,1.2834 -0.60977,0.23333 -0.60977,-2.3333 z m -0.0988,-8 c 0,-1.8333 0.30263,-2.5833 0.67252,-1.6667 0.36988,0.91667 0.36988,2.4167 0,3.3333 -0.36989,0.91667 -0.67252,0.16667 -0.67252,-1.6667 z m 388.15,-22.257 c 1.2973,-0.33806 3.0973,-0.31583 4,0.0494 0.9027,0.36523 -0.15871,0.64183 -2.3587,0.61465 -2.2,-0.0272 -2.9386,-0.326 -1.6413,-0.66405 z m 135.75,-1.1871 c 0.064,-1.5532 0.37992,-1.8692 0.80555,-0.80555 0.38516,0.9625 0.3378,2.1125 -0.10526,2.5556 -0.44306,0.44306 -0.75819,-0.34444 -0.70029,-1.75 z m -98.126,-0.21893 c 8.6245,-0.37269 11.22,-0.99893 13.667,-3.2974 1.6611,-1.5606 3.0202,-2.1668 3.0202,-1.3472 0,3.7314 -5.9125,5.6417 -16.63,5.373 l -10.703,-0.26833 z m 98.356,-7.67 c 0.0148,-2.9333 0.28784,-3.9763 0.60677,-2.3178 0.31892,1.6586 0.30682,4.0586 -0.0269,5.3333 -0.33372,1.2747 -0.59466,-0.0822 -0.57986,-3.0156 z m -523.69,-48.667 0.025,-51.333 5,-0.41382 c 2.75,-0.2276 5,0.13919 5,0.8151 0,0.67591 -1.3865,0.96388 -3.0811,0.63994 -1.6946,-0.32395 -3.7871,0.26171 -4.65,1.3014 -1.1249,1.3554 -1.6751,15.82 -1.9439,51.107 l -0.37501,49.217 z m -202.73,9.3333 c 0,-19.433 0.18639,-27.383 0.4142,-17.667 0.22782,9.7167 0.22782,25.617 0,35.333 -0.22781,9.7167 -0.4142,1.7667 -0.4142,-17.667 z m 645.16,24.667 c 0.007,-4.4 0.2564,-6.0393 0.55315,-3.6428 0.29675,2.3965 0.29063,5.9965 -0.0136,8 -0.30423,2.0035 -0.54702,0.0428 -0.53954,-4.3572 z m 82.563,2 c 0,-2.5667 0.2744,-3.6167 0.60977,-2.3333 0.33537,1.2833 0.33537,3.3833 0,4.6667 -0.33537,1.2833 -0.60977,0.23334 -0.60977,-2.3333 z m 1.1293,-7.4444 c 0.064,-1.5532 0.37992,-1.8692 0.80556,-0.80555 0.38516,0.9625 0.33779,2.1125 -0.10526,2.5556 -0.44306,0.44306 -0.75819,-0.34444 -0.7003,-1.75 z m 0.56141,-54.35 c 0,-32.086 -0.54873,-45.921 -2.4113,-60.793 -11.039,-88.144 -44.746,-157.54 -100.94,-207.82 -15.915,-14.24 -18.955,-16.503 -39.57,-29.452 -34.023,-21.371 -70.026,-36.213 -111.74,-46.064 -22.997,-5.4305 -24.53,-5.7087 -62.667,-11.365 -28.095,-4.1666 -127.51,-4.9872 -170.67,-1.4086 -35.857,2.9733 -49.067,4.3584 -64.667,6.7807 -39.535,6.139 -37.226,5.9578 -39.988,3.1377 -2.2092,-2.2556 -2.5422,-5.1444 -2.8662,-24.871 l -0.36664,-22.319 -178.11,0.0188 v 55.679 c 0,61.756 -0.32473,59.428 8.901,63.806 12.313,5.8431 24.786,23.601 30.295,43.133 5.8189,20.63 6.102,26.461 6.1375,126.41 0.0187,52.574 -0.11199,96.489 -0.29037,97.589 -0.17838,1.1 -0.71259,-33.1 -1.1871,-76 -1.3814,-124.89 -3.0809,-141.7 -16.895,-167.11 -4.0272,-7.4081 -17.523,-20.482 -22.408,-21.708 -7.0315,-1.7648 -7.2202,-3.4968 -7.2202,-66.293 v -57.906 l 85.667,-0.95104 c 47.117,-0.52307 88.649,-0.74518 92.293,-0.49357 l 6.6268,0.45747 -0.41021,22.788 c -0.36136,20.074 -0.13846,23.06 1.8714,25.07 1.4814,1.4814 3.5098,2.0378 5.7834,1.5862 14.513,-2.8821 47.83,-7.6167 62.168,-8.8344 9.5333,-0.80965 23.633,-2.0415 31.333,-2.7374 19.393,-1.7527 124.74,-2.6034 146.67,-1.1843 93.044,6.0216 172.65,32.996 229.1,77.627 54.093,42.767 91.282,103.41 106.92,174.35 1.5356,6.9667 3.3548,14.767 4.0426,17.333 0.6878,2.566 1.9114,10.667 2.7189,18 0.8075,7.3333 1.9789,17.833 2.6031,23.333 1.4094,12.418 1.6475,90.281 0.27872,91.127 -0.55,0.33992 -1,-18.075 -1,-40.921 z m -82.997,21.127 c 0.0148,-2.9333 0.28785,-3.9763 0.60677,-2.3178 0.31893,1.6586 0.30682,4.0586 -0.0269,5.3333 -0.33372,1.2747 -0.59466,-0.0822 -0.57986,-3.0156 z m -644.31,-188.02 c -0.0163,-0.74644 1.4766,-3.5738 3.3176,-6.283 1.841,-2.7092 3.9376,-6.2985 4.6591,-7.9762 0.72157,-1.6777 3.6715,-6.9503 6.5554,-11.717 2.8839,-4.7667 7.4019,-12.39 10.04,-16.941 2.6381,-4.551 5.5081,-8.7145 6.3778,-9.252 0.86968,-0.53749 0.18153,1.3861 -1.5292,4.2747 -1.71073,2.8886 -6.1422,10.652 -9.8477,17.252 -3.7055,6.6 -7.1303,12.3 -7.6106,12.667 -0.48036,0.36666 -2.2078,3.3667 -3.8387,6.6667 -3.3483,6.7749 -8.0788,13.361 -8.1236,11.31 z m 35.921,-61.879 c 2.1942,-4.3466 4.6806,-8.3301 5.5255,-8.8523 0.84488,-0.52217 1.3079,-0.41588 1.0289,0.2362 -1.2229,2.8586 -9.4802,16.519 -9.9852,16.519 -0.30722,0 1.2366,-3.5563 3.4308,-7.9029 z m 6.7157,-11.934 c 0,-0.64354 0.99823,-1.9935 2.2183,-3 2.0115,-1.6593 2.0692,-1.5502 0.61976,1.1701 -1.6532,3.1026 -2.838,3.8666 -2.838,1.8299 z m 9.3538,-15.085 c -0.0112,-1.2401 0.57958,-2.6255 1.3129,-3.0787 1.6875,-1.0429 1.6875,0.72217 0,3.3333 -1.1139,1.7236 -1.2953,1.6884 -1.3129,-0.25464 z m 3.9796,-7.6667 c 0,-0.69005 0.59313,-1.6212 1.3181,-2.0692 0.75581,-0.46712 0.97934,0.0681 0.52402,1.2546 -0.88639,2.3099 -1.8421,2.7325 -1.8421,0.8146 z m 8,-13.412 c 0.78494,-1.4667 1.7272,-2.6667 2.0938,-2.6667 0.36667,0 0.0245,1.2 -0.76049,2.6667 -0.78493,1.4667 -1.7272,2.6667 -2.0938,2.6667 -0.3666,0 -0.0245,-1.2 0.76049,-2.6667 z m -104.58,-5.7242 c 0.50071,-1.315 1.2463,-2.055 1.6568,-1.6444 0.41052,0.41051 8.45e-4,1.4864 -0.91038,2.3908 -1.3168,1.307 -1.47,1.1539 -0.74639,-0.74639 z"
       id="path1" />
    <path
       d="m 492.55,835.79 32.599,-1.2712 45.44,-5.9862 39.726,-9.5234 24.489,-5.442 22.584,-7.3466 28.298,-10.884 26.938,-11.156 28.57,-17.142 22.04,-15.51 28.026,-22.312 19.863,-22.856 18.775,-22.584 19.047,-35.101 10.884,-26.393 8.435,-25.033 4.0815,-12.516 2.4489,-19.319 3.2652,-25.577 0.81629,-9.5234 1.6326,-6.2582 -0.2721,-22.312 1.3605,-65.575 -1.6326,-4.6256 0.2721,-20.135 -6.2582,-38.638 -5.442,-26.393 -6.5303,-21.768 -6.5303,-16.598 -5.1698,-16.326 -17.142,-35.101 -10.884,-21.224 -10.612,-18.775 -8.7071,-11.156 -13.605,-19.863 -19.047,-20.407 -27.21,-25.305 -25.033,-17.958 -35.645,-23.128 -31.835,-15.51 -20.679,-9.5234 -24.489,-7.8908 -25.849,-6.8024 -27.754,-5.9861 -13.333,-1.9047 -92.785,-1.0884 -3.8094,1.6326 h -4.8978 l -4.0815,-0.81629 h -8.435 l -49.25,-0.2721 -4.0815,2.4489 h -28.026 l -5.9861,1.6326 -20.952,-0.5442 -7.0745,-4.3536 -16.598,-9.7955 -16.326,-13.061 -8.1629,-1.9047 -7.0745,-0.81629 -8.1629,-0.2721 -9.7955,-9.2513 -62.31,0.5442 -6.8024,2.4489 -41.903,-0.81629 -13.605,-3.5373 -46.801,-0.2721 -6.8024,2.721 -5.714,1.0884 -4.6257,2.4489 -4.8978,-0.81629 -2.9931,2.9931 -10.34,4.3536 -7.8908,9.2513 -10.068,17.686 -0.5442,19.047 -1.0884,4.0815 -0.81629,43.264 0.2721,24.489 1.3605,6.5303 0.2721,40.815 2.721,5.442 5.714,6.8024 4.8978,2.1768 2.9931,0.81629 4.8978,-0.54419 4.6257,-1.6326 h 4.3536 l 2.4489,1.9047 8.435,7.8908 8.9792,4.3536 12.789,13.333 3.2652,6.5303 2.4489,8.1629 4.6257,13.061 -0.81629,14.421 1.3605,1.9047 v 318.63 l -28.57,1.3605 -4.0815,5.9862 -0.2721,33.468 -2.4489,3.5373 0.5442,82.173 4.8978,4.8978 h 25.577 l 2.4489,0.54419 -1.0884,5.9861 -3.8094,7.6187 -1.9047,4.8978 -5.9861,8.435 -10.34,9.5234 -5.1699,0.54419 -10.884,3.8094 -3.2652,1.3605 -14.693,-0.8163 -7.0745,2.9931 h -10.612 l -8.435,7.3466 0.2721,57.413 10.068,7.3466 398.35,0.2721 4.6257,-2.721 50.338,0.2721 6.2582,-2.4489 16.054,0.2721 z"
       display="none"
       id="path2" />
    <path
       d="m 285.16,237.27 1.0884,75.099 55.508,3.2652 10.884,13.061 2.1768,80.541 h -2.1768 v 31.563 l 2.1768,224.21 -5.442,14.149 -11.972,8.7071 h -9.7955 l -40.27,-2.1768 -1.0884,13.061 1.0884,3.2652 7.6187,3.2652 14.149,1.0884 18.503,4.3536 11.972,-2.1768 31.563,6.5303 35.917,-2.1768 34.828,-1.0884 30.475,-6.5303 21.768,-4.3536 34.828,-16.326 29.387,-14.149 37.005,-28.298 15.237,-15.237 9.7955,-13.061 15.237,-26.121 9.7955,-19.591 6.5303,-20.679 4.3536,-17.414 7.6187,-4.3536 32.652,-2.1768 7.6187,-5.442 v -79.452 l -9.7955,-42.447 -13.061,-33.74 -17.414,-28.298 -22.856,-29.387 -20.679,-21.768 -27.21,-17.414 -31.563,-14.149 -27.21,-6.5303 -17.414,-2.1768 -22.856,-4.3536 h -9.7955 l -17.414,-1.0884 -19.591,-1.0884 z"
       display="none"
       id="path3" />
  </g>
</svg>
